<mxfile host="65bd71144e" modified="2023-05-22T11:42:11.714Z" agent="Mozilla/5.0 (Windows NT 10.0; Win64; x64) AppleWebKit/537.36 (KHTML, like Gecko) Code/1.78.2 Chrome/108.0.5359.215 Electron/22.5.2 Safari/537.36" version="21.3.2" etag="sI6-JzGatFjRqkDrEzJC" type="embed">
    <diagram id="F1pRBLLXlyfqbiRo6tza" name="Page-1">
        <mxGraphModel dx="1458" dy="1006" grid="1" gridSize="10" guides="1" tooltips="1" connect="1" arrows="1" fold="1" page="0" pageScale="1" pageWidth="850" pageHeight="1100" math="0" shadow="0">
            <root>
                <mxCell id="0"/>
                <mxCell id="1" parent="0"/>
            </root>
        </mxGraphModel>
    </diagram>
</mxfile>